<svg width="111" height="111" viewBox="0 0 111 111" fill="none" xmlns="http://www.w3.org/2000/svg">
<path d="M108.73 1.5V108.73H1.5V1.5H108.73Z" fill="black" stroke="#616161" stroke-width="3"/>
<path d="M64.8609 64.8613V39.5765C69.7941 43.0472 75.7139 45.03 81.8801 45.03V35.3622C78.1803 34.6187 74.9739 32.6355 72.5072 29.9088C68.5607 27.4297 65.8476 23.2158 65.1076 18.5059H55.9814V68.0841C55.7347 73.5375 51.2951 77.9996 45.622 77.9996C42.1687 77.9996 39.2089 76.2642 37.2357 73.7852C34.0291 72.2978 31.8093 68.8274 31.8093 64.8612C31.8093 59.1598 36.4955 54.4501 42.1687 54.4501C43.1553 54.4501 44.142 54.6978 45.1286 54.9457V45.2779C32.7959 45.5258 22.9297 55.6896 22.9297 68.0841C22.9297 74.0333 25.1495 79.4868 29.0959 83.7009C32.7959 86.1799 37.2357 87.9152 42.1687 87.9152C54.748 87.6673 64.8609 77.2558 64.8609 64.8613Z" fill="white" fill-opacity="0.6"/>
<path d="M82.2354 36.5684V45.9655C75.8384 45.9655 69.9333 43.9872 65.2584 40.5251V65.7495C65.2584 78.3616 55.1706 88.5007 42.6225 88.5007C37.7015 88.5007 33.2729 87.0171 29.582 84.544C33.7648 88.9953 39.6699 91.7155 46.0671 91.7155C58.6153 91.7155 68.703 81.5765 68.703 68.9643V43.7399C73.6241 47.2021 79.529 49.1805 85.68 49.1805V36.8157C84.696 36.8157 83.4655 36.8157 82.2354 36.5684Z" fill="#FF0050"/>
<path d="M45.5858 79.3572C51.2645 79.3572 55.7087 74.9101 55.9556 69.2278V19.8153H64.844C64.5971 18.8272 64.5971 17.8389 64.5971 16.6035H52.2522V66.0158C52.0052 71.4512 47.5611 75.8984 41.8823 75.8984C40.1541 75.8984 38.426 75.4042 37.1914 74.663C39.1665 77.3808 42.129 79.3572 45.5858 79.3572ZM81.8796 36.6157V33.651C78.4229 33.651 75.2133 32.6627 72.4974 30.9332C74.9663 33.651 78.1762 35.8746 81.8796 36.6157Z" fill="#00F2EA"/>
<path d="M64.8609 65.8125V40.5277C69.7941 43.9983 75.7139 45.9812 81.8801 45.9812V36.3134C78.1803 35.5699 74.9739 33.5867 72.5072 30.8599C68.5607 28.3809 65.8476 24.167 65.1076 19.457H55.9814V69.0352C55.7347 74.4887 51.2951 78.9507 45.622 78.9507C42.1687 78.9507 39.2089 77.2154 37.2357 74.7364C34.0291 73.249 31.8093 69.7786 31.8093 65.8123C31.8093 60.111 36.4955 55.4012 42.1687 55.4012C43.1553 55.4012 44.142 55.6489 45.1286 55.8968V46.2291C32.7959 46.477 22.9297 56.6407 22.9297 69.0352C22.9297 74.9845 25.1495 80.4379 29.0959 84.6521C32.7959 87.1311 37.2357 88.8664 42.1687 88.8664C54.748 88.6185 64.8609 78.207 64.8609 65.8125Z" fill="white"/>
</svg>
